<svg width="155" height="24" viewBox="0 0 155 24" fill="none" xmlns="http://www.w3.org/2000/svg">
<path d="M3 18H21V16H3V18ZM3 13H21V11H3V13ZM3 6V8H21V6H3Z" fill="#909090"/>
<path d="M81.4 5.12C81.06 3.88 80.09 2.92 78.85 2.6C76.62 2 67.68 2 67.68 2C67.68 2 58.75 2 56.52 2.6C55.29 2.93 54.33 3.89 54 5.12C53.59 7.39 53.39 9.69 53.4 12C53.39 14.31 53.59 16.61 54 18.88C54.33 20.11 55.29 21.07 56.52 21.4C58.75 22 67.68 22 67.68 22C67.68 22 76.61 22 78.84 21.4C80.08 21.08 81.06 20.12 81.4 18.88C81.81 16.61 82.01 14.31 82 12C82.01 9.69 81.81 7.39 81.4 5.12Z" fill="#FF0000"/>
<path d="M64.83 16.29L72.25 12L64.83 7.71002V16.29Z" fill="white"/>
<path d="M94.67 8.35004V9.00004C94.67 12.45 93.14 14.48 89.79 14.48H89.28V20.48H86.54V3.42004H90.03C93.22 3.42004 94.67 4.77004 94.67 8.35004ZM91.79 8.60004C91.79 6.11004 91.34 5.51004 89.79 5.51004H89.28V12.51H89.75C91.22 12.51 91.75 11.45 91.75 9.14004L91.79 8.60004Z" fill="white"/>
<path d="M101.14 7.83002L101 11.08C99.83 10.84 98.87 11 98.4 11.77V20.55H95.73V8.00002H97.9L98.14 10.71H98.24C98.52 8.71002 99.44 7.71002 100.63 7.71002C100.8 7.73002 100.98 7.77002 101.14 7.83002Z" fill="white"/>
<path d="M104.27 15.25V15.88C104.27 18.09 104.39 18.88 105.33 18.88C106.27 18.88 106.43 18.19 106.45 16.76L108.88 16.9C109.06 19.6 107.65 20.8 105.27 20.8C102.37 20.8 101.51 18.9 101.51 15.45V13.22C101.51 9.58 102.51 7.81 105.35 7.81C108.19 7.81 108.99 9.32 108.99 13.1V15.25H104.27ZM104.27 12.67V13.57H106.33V12.68C106.33 10.38 106.17 9.68 105.33 9.68C104.49 9.68 104.33 10.35 104.33 12.68L104.27 12.67Z" fill="white"/>
<path d="M123.02 11.1V20.56H120.2V11.31C120.2 10.31 119.93 9.78004 119.32 9.78004C118.78 9.80004 118.3 10.12 118.07 10.6C118.08 10.77 118.08 10.94 118.07 11.11V20.57H115.28V11.31C115.28 10.31 115.01 9.78004 114.4 9.78004C113.87 9.80004 113.4 10.11 113.17 10.58V20.58H110.4V8.00004H112.63L112.88 9.59004C113.39 8.47004 114.51 7.74004 115.74 7.73004C116.79 7.66004 117.72 8.40004 117.9 9.43004C118.45 8.42004 119.51 7.78004 120.66 7.77004C122.4 7.78004 123.02 9.00004 123.02 11.1Z" fill="white"/>
<path d="M124.4 4.83003C124.4 3.48003 124.89 3.09003 125.93 3.09003C126.97 3.09003 127.46 3.54003 127.46 4.83003C127.46 6.12003 126.99 6.57003 125.93 6.57003C124.87 6.57003 124.4 6.22003 124.4 4.83003ZM124.59 8.00003H127.29V20.56H124.59V8.00003Z" fill="white"/>
<path d="M136.5 8V20.56H134.3L134.05 19H133.99C133.53 20.08 132.46 20.77 131.29 20.74C129.62 20.74 128.86 19.68 128.86 17.37V8H131.68V17.19C131.68 18.29 131.91 18.74 132.48 18.74C133 18.72 133.46 18.41 133.68 17.94V8H136.5Z" fill="white"/>
<path d="M150.8 11.1V20.56H147.98V11.31C147.98 10.31 147.71 9.78004 147.1 9.78004C146.56 9.80004 146.08 10.12 145.85 10.6C145.86 10.77 145.86 10.94 145.85 11.11V20.57H143.06V11.31C143.06 10.31 142.79 9.78004 142.18 9.78004C141.65 9.80004 141.18 10.11 140.95 10.58V20.58H138.14V8.00004H140.4L140.64 9.59004C141.15 8.47004 142.27 7.74004 143.5 7.73004C144.54 7.66004 145.47 8.37004 145.67 9.39004C146.22 8.40004 147.27 7.78004 148.4 7.77004C150.15 7.78004 150.8 9.00004 150.8 11.1Z" fill="white"/>
</svg>
